<svg width="31" height="31" viewBox="0 0 31 31" fill="none" xmlns="http://www.w3.org/2000/svg">
<rect width="31" height="31" fill="#E5E5E5"/>
<g clip-path="url(#clip0_0_1)">
<rect width="1440" height="2288" transform="translate(-625 -2214)" fill="white"/>
<g filter="url(#filter0_d_0_1)">
<rect x="-625" y="-176.43" width="1440" height="250" fill="white"/>
</g>
<path d="M15.8047 5.32031C10.2827 5.32031 5.80566 9.79731 5.80566 15.3193C5.80566 20.3093 9.46166 24.4453 14.2427 25.1983V18.2103H11.7027V15.3193H14.2427V13.1163C14.2427 10.6083 15.7357 9.22531 18.0187 9.22531C19.1127 9.22531 20.2587 9.42031 20.2587 9.42031V11.8793H18.9947C17.7547 11.8793 17.3667 12.6513 17.3667 13.4423V15.3173H20.1377L19.6947 18.2083H17.3667V25.1963C22.1477 24.4473 25.8037 20.3103 25.8037 15.3193C25.8037 9.79731 21.3267 5.32031 15.8047 5.32031Z" fill="#1E2123"/>
</g>
<defs>
<filter id="filter0_d_0_1" x="-665" y="-227.43" width="1520" height="330" filterUnits="userSpaceOnUse" color-interpolation-filters="sRGB">
<feFlood flood-opacity="0" result="BackgroundImageFix"/>
<feColorMatrix in="SourceAlpha" type="matrix" values="0 0 0 0 0 0 0 0 0 0 0 0 0 0 0 0 0 0 127 0" result="hardAlpha"/>
<feOffset dy="-11"/>
<feGaussianBlur stdDeviation="20"/>
<feColorMatrix type="matrix" values="0 0 0 0 0.152941 0 0 0 0 0.372549 0 0 0 0 0.619608 0 0 0 0.05 0"/>
<feBlend mode="normal" in2="BackgroundImageFix" result="effect1_dropShadow_0_1"/>
<feBlend mode="normal" in="SourceGraphic" in2="effect1_dropShadow_0_1" result="shape"/>
</filter>
<clipPath id="clip0_0_1">
<rect width="1440" height="2288" fill="white" transform="translate(-625 -2214)"/>
</clipPath>
</defs>
</svg>
