<svg width="36" height="36" viewBox="0 0 36 36" fill="none" xmlns="http://www.w3.org/2000/svg">
<rect width="36" height="36" rx="18" fill="#7B519D"/>
<path d="M17.9024 10.4075C16.6336 10.4247 13.9035 10.633 12.3763 12.0323C11.2426 13.1594 10.8465 14.821 10.8003 16.8788C10.7608 18.9287 10.7146 22.778 14.4255 23.8267V25.4218C14.4255 25.4218 14.4005 26.0611 14.8223 26.1929C15.343 26.3577 15.6396 25.864 16.134 25.3367L17.0567 24.2953C19.5944 24.5062 21.5388 24.0191 21.7629 23.9466C22.277 23.7819 25.1778 23.4121 25.6524 19.5621C26.1401 15.5869 25.4151 13.0823 24.11 11.9486L24.1034 11.9473C23.708 11.5847 22.1261 10.4313 18.5866 10.4181C18.5866 10.4181 18.3256 10.4016 17.9024 10.4075ZM17.9466 11.5261C18.3058 11.5241 18.5266 11.5393 18.5266 11.5393C21.519 11.5458 22.95 12.4489 23.2861 12.752C24.3869 13.6939 24.9524 15.9528 24.5385 19.2721C24.143 22.4887 21.7899 22.693 21.3549 22.8314C21.1703 22.8907 19.4566 23.3126 17.3 23.1741C17.3 23.1741 15.6923 25.1126 15.1914 25.6136C15.1123 25.6993 15.02 25.7256 14.9607 25.7124C14.875 25.6927 14.8487 25.5872 14.8553 25.4422L14.8684 22.7932C11.7237 21.9231 11.9083 18.6394 11.9413 16.9256C11.9808 15.2119 12.3038 13.8067 13.2595 12.8575C14.5494 11.6909 16.8682 11.5327 17.9459 11.5261H17.9466ZM18.1838 13.2398C18.1579 13.2397 18.1322 13.2447 18.1082 13.2546C18.0842 13.2645 18.0624 13.279 18.0441 13.2973C18.0257 13.3156 18.0111 13.3374 18.0012 13.3613C17.9912 13.3853 17.9861 13.4109 17.9861 13.4369C17.9861 13.4893 18.0069 13.5396 18.044 13.5767C18.0811 13.6138 18.1314 13.6346 18.1838 13.6346C18.6739 13.6253 19.1609 13.7131 19.6168 13.8929C20.0727 14.0728 20.4885 14.3412 20.8401 14.6826C21.5586 15.3813 21.9086 16.3173 21.9217 17.5432C21.9217 17.5692 21.9269 17.5949 21.9368 17.6189C21.9467 17.6429 21.9613 17.6647 21.9797 17.6831C21.998 17.7014 22.0198 17.716 22.0438 17.7259C22.0678 17.7359 22.0935 17.741 22.1195 17.741V17.735C22.1719 17.735 22.2222 17.7142 22.2593 17.6771C22.2964 17.64 22.3172 17.5897 22.3172 17.5373C22.3417 16.9608 22.2485 16.3853 22.0434 15.8459C21.8383 15.3065 21.5255 14.8145 21.1242 14.3999C20.3398 13.6353 19.3498 13.2398 18.1832 13.2398H18.1838ZM15.5777 13.6946C15.4375 13.6746 15.2947 13.7025 15.1723 13.7737H15.1644C14.8941 13.9319 14.645 14.1296 14.4077 14.3933C14.2297 14.6042 14.1302 14.8145 14.1039 15.0188C14.0883 15.1386 14.0996 15.2604 14.1368 15.3754L14.15 15.382C14.3531 15.9792 14.6182 16.5536 14.9409 17.0957C15.3592 17.8549 15.8731 18.5573 16.4701 19.1858L16.4899 19.2121L16.5163 19.2319L16.536 19.2517L16.5558 19.2715C17.1867 19.8699 17.891 20.386 18.6518 20.8072C19.5219 21.2818 20.0505 21.5059 20.3669 21.5982V21.6048C20.4591 21.6311 20.5435 21.6443 20.6292 21.6443C20.8993 21.6246 21.155 21.5151 21.3556 21.3332C21.6126 21.1025 21.8169 20.8468 21.9685 20.5765V20.5699C22.1201 20.2865 22.0674 20.0156 21.8499 19.8311C21.4115 19.4476 20.9369 19.1076 20.4328 18.816C20.0966 18.6315 19.7539 18.7435 19.6155 18.9281L19.3189 19.3031C19.1673 19.4877 18.8904 19.4613 18.8904 19.4613L18.8825 19.4679C16.826 18.9406 16.279 16.8584 16.279 16.8584C16.279 16.8584 16.2526 16.575 16.4437 16.43L16.8129 16.1334C16.9908 15.9884 17.1161 15.6456 16.9249 15.3095C16.6337 14.8051 16.2937 14.3304 15.9099 13.8923C15.8264 13.7888 15.7085 13.7186 15.5777 13.6946ZM18.5259 14.2812C18.4735 14.2814 18.4233 14.3024 18.3863 14.3396C18.3493 14.3768 18.3287 14.4272 18.3288 14.4796C18.329 14.5321 18.35 14.5823 18.3872 14.6192C18.4244 14.6562 18.4748 14.6769 18.5272 14.6767C19.1869 14.6881 19.815 14.9607 20.2739 15.4347C20.481 15.6631 20.6401 15.9307 20.742 16.2216C20.8439 16.5126 20.8865 16.821 20.8671 17.1286C20.8673 17.181 20.8882 17.2311 20.9253 17.268C20.9624 17.305 21.0125 17.3257 21.0649 17.3257L21.0715 17.3336C21.0975 17.3336 21.1233 17.3285 21.1473 17.3185C21.1713 17.3085 21.1932 17.2939 21.2115 17.2755C21.2299 17.2571 21.2444 17.2352 21.2543 17.2111C21.2642 17.187 21.2693 17.1613 21.2692 17.1352C21.289 16.3509 21.0451 15.6918 20.5639 15.1644C20.0828 14.6371 19.4105 14.3405 18.5536 14.2812C18.5444 14.2806 18.5351 14.2806 18.5259 14.2812ZM18.8489 15.3483C18.8225 15.3476 18.7961 15.352 18.7714 15.3614C18.7467 15.3708 18.724 15.385 18.7048 15.4031C18.6855 15.4213 18.67 15.443 18.6592 15.4672C18.6484 15.4913 18.6424 15.5173 18.6416 15.5438C18.6408 15.5702 18.6453 15.5966 18.6547 15.6213C18.6641 15.646 18.6782 15.6686 18.6964 15.6879C18.7145 15.7071 18.7363 15.7226 18.7604 15.7335C18.7846 15.7443 18.8106 15.7503 18.837 15.7511C19.4896 15.784 19.8059 16.1136 19.8455 16.7925C19.8472 16.8438 19.8688 16.8924 19.9057 16.9281C19.9426 16.9637 19.9919 16.9837 20.0432 16.9836H20.0498C20.0764 16.9828 20.1025 16.9766 20.1266 16.9655C20.1507 16.9544 20.1724 16.9385 20.1902 16.9188C20.208 16.8991 20.2217 16.876 20.2305 16.8509C20.2392 16.8258 20.2428 16.7992 20.241 16.7727C20.1948 15.8895 19.7137 15.3945 18.8568 15.3483C18.8542 15.3483 18.8515 15.3483 18.8489 15.3483Z" fill="white"/>
</svg>
