<svg width="36" height="36" viewBox="0 0 36 36" fill="none" xmlns="http://www.w3.org/2000/svg">
<rect width="36" height="36" rx="18" fill="#664EF9"/>
<g clip-path="url(#clip0_2831_2022)">
<path d="M25.3926 25.0709C25.7973 25.0709 26.1479 24.9373 26.4459 24.6735L21.3462 19.5736C21.2239 19.6613 21.1053 19.7465 20.9932 19.8275C20.6116 20.1086 20.3018 20.3281 20.064 20.4853C19.8262 20.6429 19.5098 20.8035 19.1148 20.9675C18.7196 21.1317 18.3514 21.2135 18.0098 21.2135H17.9998H17.9898C17.6482 21.2135 17.28 21.1317 16.8848 20.9675C16.4896 20.8035 16.1732 20.6429 15.9356 20.4853C15.6978 20.3281 15.3882 20.1087 15.0064 19.8275C14.9 19.7495 14.782 19.6639 14.6544 19.5723L9.55371 24.6735C9.85172 24.9373 10.2025 25.0709 10.6071 25.0709H25.3926Z" fill="white"/>
<path d="M10.0146 16.3623C9.63301 16.1079 9.29461 15.8165 9 15.4883V23.2473L13.4948 18.7525C12.5956 18.1247 11.437 17.3289 10.0146 16.3623Z" fill="white"/>
<path d="M25.9964 16.3623C24.6282 17.2883 23.4654 18.0855 22.5078 18.7543L27.0008 23.2475V15.4883C26.7128 15.8099 26.378 16.1011 25.9964 16.3623Z" fill="white"/>
<path d="M25.3925 10.9277H10.607C10.0912 10.9277 9.69465 11.1019 9.41683 11.4499C9.13879 11.7981 9 12.2335 9 12.7557C9 13.1775 9.18418 13.6346 9.55239 14.1269C9.9206 14.6191 10.3124 15.0057 10.7276 15.287C10.9552 15.4478 11.6416 15.925 12.7868 16.7184C13.405 17.1468 13.9427 17.5202 14.4047 17.8424C14.7985 18.1168 15.1381 18.3544 15.4185 18.5516C15.4506 18.5742 15.5013 18.6104 15.5685 18.6584C15.6408 18.7104 15.7324 18.7764 15.8455 18.858C16.0631 19.0154 16.2439 19.1426 16.3878 19.2398C16.5316 19.337 16.7059 19.4456 16.9102 19.5662C17.1145 19.6866 17.3071 19.7772 17.4879 19.8374C17.6687 19.8976 17.8361 19.9278 17.99 19.9278H18H18.01C18.164 19.9278 18.3314 19.8976 18.5123 19.8374C18.693 19.7772 18.8855 19.6868 19.0899 19.5662C19.294 19.4456 19.468 19.3368 19.6123 19.2398C19.7563 19.1426 19.9371 19.0154 20.1547 18.858C20.2675 18.7764 20.3591 18.7104 20.4315 18.6586C20.4987 18.6104 20.5493 18.5744 20.5817 18.5516C20.8001 18.3996 21.1405 18.163 21.5982 17.8452C22.4309 17.2666 23.6573 16.415 25.2826 15.287C25.7714 14.9455 26.1797 14.5336 26.5079 14.0516C26.8356 13.5696 26.9998 13.064 26.9998 12.5349C26.9998 12.0929 26.8406 11.7147 26.5227 11.3997C26.2046 11.0851 25.8278 10.9277 25.3925 10.9277Z" fill="white"/>
</g>
<defs>
<clipPath id="clip0_2831_2022">
<rect width="18" height="18" fill="white" transform="translate(9 9)"/>
</clipPath>
</defs>
</svg>
