<svg width="36" height="36" viewBox="0 0 36 36" fill="none" xmlns="http://www.w3.org/2000/svg">
<rect width="36" height="36" rx="18" fill="#0DBB41"/>
<path d="M23.3797 12.5885C22.6794 11.883 21.8458 11.3237 20.9275 10.9431C20.0092 10.5624 19.0244 10.368 18.0303 10.3711C13.8635 10.3711 10.4721 13.7625 10.4721 17.9322C10.4721 19.2645 10.8212 20.5673 11.4821 21.7118L10.4092 25.6306L14.4176 24.5786C15.5258 25.1823 16.7674 25.499 18.0294 25.4999H18.0322C22.199 25.4999 25.5933 22.1085 25.5933 17.9389C25.5958 16.9451 25.4014 15.9607 25.0213 15.0426C24.6412 14.1244 24.0829 13.2906 23.3788 12.5895L23.3797 12.5885ZM18.0322 24.2239C16.906 24.224 15.8005 23.9213 14.8316 23.3474L14.6017 23.2101L12.2231 23.8328L12.8583 21.5143L12.7095 21.2759C12.078 20.2752 11.7442 19.1155 11.7472 17.9322C11.7493 16.2652 12.4126 14.6671 13.5916 13.4886C14.7706 12.3101 16.369 11.6475 18.036 11.6462C19.7136 11.6462 21.2939 12.3024 22.4794 13.4879C23.0644 14.0708 23.5281 14.7638 23.8437 15.527C24.1593 16.2901 24.3206 17.1083 24.3182 17.9341C24.3153 21.4028 21.4961 24.2229 18.0322 24.2229V24.2239ZM21.478 19.5154C21.2901 19.42 20.3602 18.9641 20.1876 18.9012C20.015 18.8382 19.8891 18.8058 19.7613 18.9965C19.6364 19.1844 19.273 19.6107 19.1624 19.7385C19.0518 19.8635 18.9421 19.8816 18.7542 19.7862C18.5663 19.6908 17.955 19.4915 17.234 18.8478C16.6732 18.3471 16.2927 17.7271 16.182 17.5393C16.0714 17.3514 16.1696 17.2474 16.2659 17.1549C16.3527 17.071 16.4538 16.9346 16.5492 16.824C16.6446 16.7133 16.6741 16.6361 16.7371 16.5083C16.8 16.3834 16.7695 16.2727 16.7218 16.1774C16.6741 16.082 16.2955 15.1521 16.141 14.7735C15.9894 14.4034 15.8311 14.4549 15.7147 14.4483C15.6041 14.4425 15.4791 14.4425 15.3542 14.4425C15.2293 14.4425 15.0233 14.4902 14.8506 14.6781C14.678 14.866 14.1888 15.3247 14.1888 16.2546C14.1888 17.1845 14.8649 18.0819 14.9603 18.2097C15.0557 18.3347 16.2927 20.2449 18.1877 21.0623C18.6378 21.2559 18.9898 21.3722 19.2635 21.4619C19.7165 21.6049 20.1275 21.584 20.4528 21.5363C20.8161 21.4829 21.5705 21.0804 21.7288 20.6388C21.8871 20.1973 21.8871 19.8196 21.8395 19.7414C21.7946 19.6575 21.6697 19.6107 21.479 19.5144L21.478 19.5154Z" fill="white"/>
</svg>
